# xmcd
#
# Track frame offsets:
#	150
#	19627
#	36318
#	56723
#	76285
#	91699
#	110038
#	137721
#	153697
#	167739
#
# Disc length: 2488 seconds
#
# Revision: 0
# Processed by: cddbd v1.5.2PL0 Copyright (c) Steve Scherf et al.
# Submitted via: audiograbber 1.83.01
#
DISCID=7d09b60a
DTITLE=Stig Terje Olsen - Miss You More
DYEAR=2006
DGENRE=Country
TTITLE0=Miss You More Than Anything
TTITLE1=Everytime I See You
TTITLE2=I Wanna Live My Life With You
TTITLE3=End Of The World
TTITLE4=Moving On
TTITLE5=Irrational
TTITLE6=You Are My Friend
TTITLE7=I Want You So
TTITLE8=Moods
TTITLE9=The Time Is Running Out
EXTD=
EXTT0=
EXTT1=
EXTT2=
EXTT3=
EXTT4=
EXTT5=
EXTT6=
EXTT7=
EXTT8=
EXTT9=
PLAYORDER=
